<?xml version="1.0" encoding="utf-8"?><svg xmlns="http://www.w3.org/2000/svg" xmlns:xlink="http://www.w3.org/1999/xlink"><symbol viewBox="0 0 15 15" id="WhatsApp" xmlns="http://www.w3.org/2000/svg"><path d="M15 7.307c0 4.035-3.296 7.307-7.364 7.307a7.376 7.376 0 0 1-3.56-.91L0 15l1.33-3.92A7.23 7.23 0 0 1 .271 7.307C.272 3.27 3.57 0 7.636 0 11.704 0 15 3.271 15 7.307zM7.636 1.164c-3.414 0-6.19 2.756-6.19 6.143 0 1.344.438 2.589 1.179 3.601L1.85 13.19l2.38-.756a6.186 6.186 0 0 0 3.405 1.016c3.414 0 6.192-2.755 6.192-6.143 0-3.387-2.778-6.143-6.192-6.143zm3.719 7.826c-.046-.075-.166-.12-.346-.21-.18-.089-1.069-.522-1.234-.582-.165-.06-.286-.09-.406.09-.12.179-.466.582-.572.702-.105.12-.21.134-.39.045-.181-.09-.763-.279-1.452-.889a5.4 5.4 0 0 1-1.004-1.24c-.105-.18-.011-.276.079-.365.081-.08.18-.21.27-.314.091-.105.121-.18.181-.299.06-.12.03-.224-.015-.314s-.406-.97-.556-1.33c-.15-.357-.301-.298-.407-.298-.105 0-.225-.015-.346-.015a.666.666 0 0 0-.481.224c-.165.18-.631.613-.631 1.494s.646 1.733.737 1.852c.09.12 1.248 1.987 3.083 2.704 1.835.717 1.835.478 2.166.448.33-.03 1.068-.434 1.219-.851.15-.42.15-.778.105-.852z"/></symbol><symbol viewBox="0 0 15 9" id="arrow-select" xmlns="http://www.w3.org/2000/svg"><path d="M14.105 1.023a.477.477 0 0 0-.675 0L7.5 6.965 1.558 1.023a.477.477 0 0 0-.674.675L7.15 7.965c.093.093.21.14.337.14a.485.485 0 0 0 .338-.14l6.267-6.267a.467.467 0 0 0 .012-.675z"/></symbol><symbol viewBox="0 0 18 19" id="call" xmlns="http://www.w3.org/2000/svg"><g clip-path="url(#cclip0)"><path d="M15.475 16.157l-2.096-2.556a1.186 1.186 0 0 0-.821-.378l-.885.017c-.76.43-2.245 1.063-4.299-2.439-2.054-3.5-.754-4.449.004-4.88l.456-.745c.143-.235.178-.634.079-.889L6.71 1.224A.635.635 0 0 0 6.033.85l-1.475.267c-2.86 1.625-2.883 6.489-.051 11.313 2.832 4.826 7.126 7.239 9.986 5.614l.972-1.124a.614.614 0 0 0 .01-.763zM10.74 4.636c2.836.748 4.526 3.625 3.765 6.416-.054.2.067.405.27.458a.38.38 0 0 0 .466-.266c.868-3.188-1.062-6.476-4.304-7.33a.373.373 0 1 0-.197.722z"/><path d="M10.347 6.082c2.026.533 3.232 2.59 2.69 4.582-.055.2.065.404.268.458a.38.38 0 0 0 .466-.266c.651-2.391-.796-4.856-3.227-5.498a.374.374 0 1 0-.196.724z"/><path d="M9.954 7.527c1.215.32 1.938 1.554 1.613 2.749-.055.2.065.405.268.458a.38.38 0 0 0 .466-.265c.435-1.593-.53-3.238-2.151-3.665a.38.38 0 0 0-.466.264c-.054.2.066.406.27.46z"/><path d="M9.56 8.973a.748.748 0 0 1 .537.916.372.372 0 0 0 .269.458.378.378 0 0 0 .466-.264 1.495 1.495 0 0 0-1.075-1.832.38.38 0 0 0-.466.264.374.374 0 0 0 .269.458z"/></g><defs><clipPath id="cclip0"><path transform="translate(0 .842)" d="M0 0h18v17.706H0z"/></clipPath></defs></symbol><symbol viewBox="0 0 19 21" id="curr" xmlns="http://www.w3.org/2000/svg"><path d="M.475 17.659H3.8v2.864a.46.46 0 0 0 .475.477h2.48c.128 0 .24-.045.333-.135a.451.451 0 0 0 .141-.342v-2.864h7.496a.46.46 0 0 0 .342-.134.465.465 0 0 0 .133-.343v-1.91a.464.464 0 0 0-.133-.342.461.461 0 0 0-.342-.135H7.23v-1.76h5.047c1.979 0 3.594-.606 4.846-1.82C18.374 10.004 19 8.438 19 6.519s-.626-3.485-1.878-4.698C15.87.607 14.255 0 12.276 0h-8a.462.462 0 0 0-.342.134.467.467 0 0 0-.134.343V9.86H.475a.473.473 0 0 0-.475.477v2.222a.46.46 0 0 0 .475.477H3.8v1.76H.475a.46.46 0 0 0-.475.477v1.91a.46.46 0 0 0 .475.477zM7.23 3.177h4.75c1.049 0 1.895.308 2.538.925.643.616.965 1.422.965 2.416s-.322 1.8-.965 2.416c-.643.617-1.49.925-2.538.925h-4.75V3.177z"/></symbol><symbol viewBox="0 0 21 21" id="eye" xmlns="http://www.w3.org/2000/svg"><path d="M20.64 9.044c-.043-.054-1.06-1.33-2.805-2.612-2.331-1.713-4.868-2.618-7.335-2.618-2.467 0-5.004.905-7.335 2.618C1.421 7.714.403 8.99.361 9.044L0 9.5l.36.456c.043.054 1.06 1.33 2.805 2.612 2.331 1.712 4.868 2.618 7.335 2.618 2.467 0 5.004-.906 7.335-2.618 1.744-1.282 2.762-2.558 2.804-2.612L21 9.5l-.36-.456zM10.5 13.483a3.988 3.988 0 0 1-3.857-4.98l-.91-.153a4.89 4.89 0 0 0 1.436 4.744 12.907 12.907 0 0 1-3.1-1.687A15.45 15.45 0 0 1 1.916 9.5 15.458 15.458 0 0 1 4.07 7.593a12.91 12.91 0 0 1 3.1-1.688l.61.688a3.968 3.968 0 0 1 2.72-1.076A3.988 3.988 0 0 1 14.484 9.5a3.988 3.988 0 0 1-3.983 3.983zm6.43-2.076a12.91 12.91 0 0 1-3.1 1.687A4.89 4.89 0 0 0 15.402 9.5a4.89 4.89 0 0 0-1.572-3.595 12.912 12.912 0 0 1 3.1 1.688c.99.722 1.73 1.453 2.154 1.907a15.442 15.442 0 0 1-2.154 1.907z" fill-opacity=".5"/><path d="M7.965 8.726a2.65 2.65 0 1 0 .699-1.136l1.307 1.473-2.006-.337z" fill-opacity=".5"/></symbol><symbol viewBox="0 0 18 16" id="file" xmlns="http://www.w3.org/2000/svg"><path d="M7.957 2.15L6.572.215 6.455.05H0v15.9h18V2.15H7.957zm9.443.6v1.5H9.46l-1.073-1.5H17.4zM.6 15.35V.65h5.546l1.5 2.1h.003l1.407 1.965a.3.3 0 0 0 .244.126v.009h8.1v10.5H.6z"/></symbol><symbol viewBox="0 0 15 15" id="inst" xmlns="http://www.w3.org/2000/svg"><path d="M10.86 0H4.14A4.144 4.144 0 0 0 0 4.14v6.72A4.144 4.144 0 0 0 4.14 15h6.72A4.144 4.144 0 0 0 15 10.86V4.14A4.144 4.144 0 0 0 10.86 0zm2.81 10.86a2.812 2.812 0 0 1-2.81 2.81H4.14a2.812 2.812 0 0 1-2.81-2.81V4.14a2.812 2.812 0 0 1 2.81-2.81h6.72a2.812 2.812 0 0 1 2.81 2.81v6.72z"/><path d="M7.5 3.635A3.87 3.87 0 0 0 3.635 7.5 3.87 3.87 0 0 0 7.5 11.365 3.87 3.87 0 0 0 11.365 7.5 3.87 3.87 0 0 0 7.5 3.635zm0 6.4A2.537 2.537 0 0 1 4.966 7.5 2.537 2.537 0 0 1 7.5 4.966 2.537 2.537 0 0 1 10.034 7.5 2.537 2.537 0 0 1 7.5 10.034zM11.976 3a.98.98 0 0 0-.976.976c0 .256.105.508.287.69a.983.983 0 0 0 .689.286.985.985 0 0 0 .69-.286.98.98 0 0 0 0-1.38.98.98 0 0 0-.69-.286z"/></symbol><symbol viewBox="0 0 43 42" id="mobile-phone" xmlns="http://www.w3.org/2000/svg"><path d="M41.151 33.22l-6.5-6.502c-1.295-1.29-3.44-1.25-4.78.09l-3.275 3.275a98.528 98.528 0 0 1-.646-.36c-2.068-1.146-4.9-2.716-7.878-5.697-2.988-2.988-4.56-5.823-5.71-7.892-.12-.22-.237-.431-.351-.632l2.198-2.195 1.08-1.082c1.342-1.342 1.38-3.486.088-4.78L8.875.944c-1.292-1.291-3.438-1.252-4.78.09L2.264 2.876l.05.05a10.595 10.595 0 0 0-1.51 2.663 11.04 11.04 0 0 0-.671 2.7c-.859 7.117 2.393 13.621 11.219 22.447 12.2 12.198 22.03 11.277 22.455 11.232.923-.11 1.809-.331 2.708-.68.967-.378 1.87-.89 2.654-1.504l.04.036 1.856-1.818c1.34-1.342 1.378-3.487.087-4.782z"/></symbol><symbol viewBox="0 0 17 17" id="phone" xmlns="http://www.w3.org/2000/svg"><path d="M9.493 11.07h-.001a3.964 3.964 0 0 1-.305-.163c-.927-.589-1.77-1.356-2.581-2.353-.372-.47-.625-.866-.812-1.261.217-.201.42-.408.617-.607l.068-.069.133-.135.132-.134c.348-.348.528-.754.528-1.166 0-.412-.18-.818-.528-1.166l-.864-.864a13.11 13.11 0 0 1-.292-.299h-.001c-.19-.197-.39-.4-.598-.593-.323-.319-.715-.493-1.13-.493-.415 0-.813.175-1.146.494l-.001.001-.003.003-.003.003-1.077 1.086a2.416 2.416 0 0 0-.716 1.534v.001c-.077.947.201 1.825.411 2.392.518 1.396 1.29 2.688 2.44 4.069a14.998 14.998 0 0 0 4.994 3.91c.73.347 1.717.762 2.823.833h.001a4.5 4.5 0 0 0 .204.007c.759 0 1.4-.274 1.9-.818l.01-.01.001-.002.002-.002a12.594 12.594 0 0 0 .964-.981c.329-.342.506-.746.506-1.165 0-.423-.18-.824-.517-1.157l-1.737-1.743c-.323-.336-.718-.52-1.141-.52-.42 0-.818.18-1.154.516l-.948.945a12.677 12.677 0 0 0-.1-.051l-.079-.042zm4.55 2.483l-.064.071-.002-.001v-.096a.1.1 0 0 1 .065.026zm-.148.013l-.002.003a8.865 8.865 0 0 1-.299.3l-.072.07a8.432 8.432 0 0 0-.617.64c-.3.319-.649.47-1.115.47-.049 0-.096 0-.14-.004-.92-.059-1.779-.419-2.432-.73a13.964 13.964 0 0 1-4.64-3.634C3.506 9.386 2.79 8.193 2.317 6.914c-.291-.78-.394-1.379-.349-1.939.03-.347.162-.632.408-.878L3.454 3.02c.143-.134.284-.197.411-.197.16 0 .297.097.392.193l.01.009.002.002c.191.179.373.364.566.564l.15.153.151.154h.001l.864.865c.159.158.223.296.223.42s-.064.262-.223.42a22.28 22.28 0 0 0-.093.094c-.06.06-.117.119-.178.177l-.002.002c-.265.272-.517.523-.79.768l-.002.003h-.001l-.004.004a.752.752 0 0 0-.247.466.873.873 0 0 0 .045.366v.002l.01.028.003.007c.23.555.551 1.076 1.036 1.692l.008.008c.878 1.082 1.806 1.927 2.832 2.576.134.085.27.153.396.216h.002c.115.058.218.11.305.164l.008.004.011.007.027.016c.12.06.236.09.358.09.305 0 .494-.19.551-.247l.001-.002 1.083-1.082c.103-.103.25-.208.407-.208.155 0 .292.099.382.198l.004.003.006.007 1.744 1.744c.152.15.216.29.216.42 0 .129-.06.269-.205.422a.105.105 0 0 0-.019.019zM12.92 8.333h.003a.528.528 0 0 0 .434-.609 4.983 4.983 0 0 0-1.399-2.698 4.983 4.983 0 0 0-2.697-1.399.53.53 0 0 0-.61.43.523.523 0 0 0 .428.61 3.915 3.915 0 0 1 2.13 1.105 3.935 3.935 0 0 1 1.106 2.13.525.525 0 0 0 .597.432h.007zM13.785 3.193A8.133 8.133 0 0 0 9.38.908a.526.526 0 0 0-.606.43.53.53 0 0 0 .432.61 7.093 7.093 0 0 1 3.838 1.988 7.072 7.072 0 0 1 1.988 3.837.525.525 0 0 0 .598.432l.007-.001h.003a.52.52 0 0 0 .431-.604 8.133 8.133 0 0 0-2.285-4.407z"/></symbol><symbol viewBox="0 0 15 14" id="phone-call" xmlns="http://www.w3.org/2000/svg"><g clip-path="url(#jclip0)"><path d="M14.313 10.88l-2.33-2.32a1.238 1.238 0 0 0-1.747 0l-.582.58c-.482.48-1.265.48-1.749-.002L5.466 6.742a1.228 1.228 0 0 1 0-1.74l.583-.58c.481-.48.481-1.26 0-1.74L3.719.362a1.24 1.24 0 0 0-1.747 0l-.582.58C.634 1.695.412 3.355.81 5.273c.254 1.223.983 3.578 3.02 5.607 2.034 2.025 4.38 2.72 5.596 2.954 1.338.257 3.348.318 4.304-.635l.583-.58c.481-.48.481-1.26 0-1.74zM2.555.942c.16-.16.421-.16.582 0l2.33 2.32c.16.16.16.42 0 .58l-.29.288-2.912-2.899.29-.289zm7.027 12.086c-1.124-.216-3.29-.858-5.169-2.728-1.886-1.878-2.562-4.06-2.797-5.193-.311-1.5-.181-2.629.121-3.242l2.886 2.874a2.048 2.048 0 0 0 .263 2.584L7.325 9.72c.703.7 1.793.787 2.593.26l2.888 2.876c-.88.445-2.249.36-3.224.172zm4.148-.989l-.29.289-2.911-2.9.29-.288c.16-.16.421-.16.582 0l2.33 2.32c.16.16.16.42 0 .58zM8.497.003a.41.41 0 1 0 0 .82c2.951 0 5.353 2.392 5.353 5.331a.411.411 0 0 0 .823 0c0-3.392-2.77-6.15-6.176-6.15z"/><path d="M8.497 1.643a.41.41 0 1 0 0 .82c2.043 0 3.706 1.656 3.706 3.69a.411.411 0 0 0 .823 0c0-2.486-2.032-4.51-4.53-4.51z"/><path d="M8.497 3.284a.41.41 0 1 0 0 .82c1.135 0 2.059.92 2.059 2.05a.41.41 0 0 0 .823 0 2.88 2.88 0 0 0-2.882-2.87z"/><path d="M8.497 4.924a.41.41 0 1 0 0 .82c.227 0 .411.184.411.41a.41.41 0 0 0 .824 0c0-.678-.554-1.23-1.235-1.23z"/></g><defs><clipPath id="jclip0"><path transform="translate(.615)" d="M0 0h14.059v14H0z"/></clipPath></defs></symbol><symbol viewBox="0 0 18 19" id="search" xmlns="http://www.w3.org/2000/svg"><g clip-path="url(#kclip0)"><path fill-rule="evenodd" clip-rule="evenodd" d="M17.56 16.137l-3.911-3.847c-.02-.02-.045-.034-.067-.053a7.159 7.159 0 0 0 1.219-4c0-4.021-3.314-7.28-7.4-7.28C3.312.956 0 4.215 0 8.236c0 4.02 3.313 7.279 7.4 7.279 1.503 0 2.9-.442 4.067-1.199.02.021.034.045.055.066l3.91 3.847c.588.577 1.54.577 2.127 0a1.463 1.463 0 0 0 0-2.093zM7.4 12.992c-2.67 0-4.835-2.13-4.835-4.756C2.565 5.61 4.73 3.48 7.4 3.48s4.835 2.13 4.835 4.756c0 2.627-2.165 4.756-4.835 4.756z"/></g><defs><clipPath id="kclip0"><path transform="translate(0 .956)" d="M0 0h18v17.706H0z"/></clipPath></defs></symbol><symbol viewBox="0 0 15 14" id="user" xmlns="http://www.w3.org/2000/svg"><path d="M10.063 9.078H9.45a.378.378 0 0 1-.367-.287c-.036-.146.015-.34.113-.422 1.294-1.1 2.095-3.285 2.095-4.678A3.692 3.692 0 0 0 7.607 0a3.692 3.692 0 0 0-3.684 3.691c0 1.393.801 3.577 2.095 4.678.098.083.15.276.113.422a.378.378 0 0 1-.367.287h-.613a3.692 3.692 0 0 0-3.683 3.692v.82c0 .226.183.41.409.41h11.46a.41.41 0 0 0 .41-.41v-.82a3.692 3.692 0 0 0-3.684-3.692zm2.865 4.102H2.286v-.41a2.871 2.871 0 0 1 2.865-2.872h.613c.55 0 1.028-.373 1.161-.908.113-.45-.043-.962-.377-1.247-1.064-.905-1.806-2.862-1.806-4.052A2.876 2.876 0 0 1 7.607.815a2.876 2.876 0 0 1 2.865 2.876c0 1.19-.741 3.147-1.806 4.052-.334.284-.49.797-.377 1.247.133.535.61.908 1.161.908h.613a2.871 2.871 0 0 1 2.865 2.872v.41z"/></symbol></svg>